<svg xmlns="http://www.w3.org/2000/svg" xmlns:xlink="http://www.w3.org/1999/xlink" width="69" height="30" viewBox="0 0 69 30">
  <defs>
    <clipPath id="clip-path">
      <rect id="Rect치ngulo_64" data-name="Rect치ngulo 64" width="23.319" height="22.347" fill="#41d3ac"/>
    </clipPath>
  </defs>
  <g id="Grupo_258" data-name="Grupo 258" transform="translate(1739 -2244)">
    <g id="Rect치ngulo_96" data-name="Rect치ngulo 96" transform="translate(-1739 2244)" fill="none" stroke="#41d3ac" stroke-width="1">
      <rect width="69" height="30" rx="15" stroke="none"/>
      <rect x="0.5" y="0.5" width="68" height="29" rx="14.5" fill="none"/>
    </g>
    <g id="Grupo_256" data-name="Grupo 256" transform="translate(-1731.304 2247)">
      <g id="Grupo_46" data-name="Grupo 46" clip-path="url(#clip-path)">
        <path id="Trazado_115" data-name="Trazado 115" d="M22.792,10.191a1.739,1.739,0,0,0-.964-2.966L16.06,6.387A.348.348,0,0,1,15.8,6.2L13.218.969a1.739,1.739,0,0,0-3.118,0L7.52,6.2a.348.348,0,0,1-.262.19L1.49,7.225a1.739,1.739,0,0,0-.964,2.966L4.7,14.259a.348.348,0,0,1,.1.308l-.985,5.745a1.739,1.739,0,0,0,2.523,1.833l5.16-2.713a.348.348,0,0,1,.324,0l5.16,2.713A1.739,1.739,0,0,0,19.5,20.313l-.985-5.745a.348.348,0,0,1,.1-.308ZM17.147,14.8l.985,5.745a.348.348,0,0,1-.5.366L12.468,18.2a1.739,1.739,0,0,0-1.618,0L5.69,20.914a.348.348,0,0,1-.5-.366L6.171,14.8a1.738,1.738,0,0,0-.5-1.539L1.5,9.195A.348.348,0,0,1,1.69,8.6l5.769-.838a1.738,1.738,0,0,0,1.309-.951l2.58-5.227a.348.348,0,0,1,.624,0h0l2.58,5.227a1.738,1.738,0,0,0,1.309.951l5.769.838a.348.348,0,0,1,.193.593l-4.174,4.069a1.738,1.738,0,0,0-.5,1.539" transform="translate(0)" fill="#41d3ac"/>
      </g>
    </g>
  </g>
</svg>
