<svg xmlns="http://www.w3.org/2000/svg" width="16.049" height="22.469" viewBox="0 0 16.049 22.469">
  <g id="Layer_7" data-name="Layer 7" transform="translate(-12 -4)">
    <path id="Trazado_253" data-name="Trazado 253" d="M24.839,21.209A4.381,4.381,0,0,0,24.1,18.8l-.257-.4a3.611,3.611,0,0,1-.606-1.962V14.5A6.018,6.018,0,0,0,19.222,4H12.4a.4.4,0,1,0,0,.8h3.832a6.018,6.018,0,0,0,0,10.432H12.4a.4.4,0,1,0,0,.8H18.42v5.176c-2.006.489-3.21,1.392-3.21,2.447,0,1.6,2.76,2.809,6.42,2.809s6.42-1.2,6.42-2.809C28.049,22.6,26.845,21.7,24.839,21.209Zm-1.408-1.962a3.611,3.611,0,0,1,.606,2.006v2.331a4.975,4.975,0,0,1-2.407.465,4.975,4.975,0,0,1-2.407-.465V13.99a.4.4,0,0,0-.361-.361,3.611,3.611,0,0,1-2.644-1.6h3.406a2.809,2.809,0,0,1,2.809,2.809v1.6a4.389,4.389,0,0,0,.742,2.447Zm-7.82-9.228a3.611,3.611,0,1,1,7.222,0,3.571,3.571,0,0,1-.742,2.187,3.579,3.579,0,0,0-2.468-.983h-3.8a3.611,3.611,0,0,1-.209-1.2Zm-1.6,0a5.216,5.216,0,1,1,9,3.579,3.611,3.611,0,0,0-.4-.774,4.413,4.413,0,1,0-4.189,1.533v.8a5.216,5.216,0,0,1-4.413-5.14Zm7.623,15.648c-3.21,0-5.617-1.059-5.617-2.006,0-.606.951-1.236,2.407-1.6v1.6c0,1.2,3.178,1.2,3.21,1.2s3.21,0,3.21-1.2v-1.6c1.456.4,2.407,1.015,2.407,1.6C27.247,24.607,24.839,25.666,21.629,25.666Z" fill="#fff"/>
    <path id="Trazado_254" data-name="Trazado 254" d="M34.408,36.407A3.611,3.611,0,0,1,33.8,34.4a.4.4,0,1,0-.8,0,4.389,4.389,0,0,0,.742,2.447l.257.4a3.611,3.611,0,0,1,.606,1.966v.8a.4.4,0,1,0,.8,0v-.8a4.389,4.389,0,0,0-.742-2.447Z" transform="translate(-12.574 -17.963)" fill="#fff"/>
    <path id="Trazado_255" data-name="Trazado 255" d="M31.842,28.026a.4.4,0,1,0,.8,0V27.32a1.2,1.2,0,0,0-.666-1.079l-.357-.177a.4.4,0,0,0-.361.714l.361.181a.4.4,0,0,1,.221.361Z" transform="translate(-11.416 -13.193)" fill="#fff"/>
  </g>
</svg>
