<svg id="electrodomestico" xmlns="http://www.w3.org/2000/svg" width="20.884" height="28.913" viewBox="0 0 20.884 28.913">
  <path id="Trazado_22" data-name="Trazado 22" d="M20.014,0H.87A.871.871,0,0,0,0,.87V25.9a.871.871,0,0,0,.87.87h.616v1.154a.987.987,0,0,0,.986.986h15.94a.987.987,0,0,0,.986-.986V26.773h.616a.871.871,0,0,0,.87-.87V10.612a.426.426,0,1,0-.851,0V25.9a.019.019,0,0,1-.019.019H.87A.019.019,0,0,1,.851,25.9V5.849H20.033V7.881a.426.426,0,1,0,.851,0V.87a.871.871,0,0,0-.87-.87ZM2.337,26.773H18.547v1.154a.135.135,0,0,1-.135.135H2.472a.135.135,0,0,1-.135-.135ZM20.033,5H.851V.87A.019.019,0,0,1,.87.851H20.014a.019.019,0,0,1,.019.019V5Zm0,0" transform="translate(0 0)" fill="#000000"/>
  <path id="Trazado_23" data-name="Trazado 23" d="M198.615,27.453h-6.73a.71.71,0,0,0-.709.709V29.6a.71.71,0,0,0,.709.709h6.729a.71.71,0,0,0,.709-.709V28.162A.71.71,0,0,0,198.615,27.453Zm-.142,2.005h-6.446V28.3h6.446Zm0,0" transform="translate(-180.38 -25.903)" fill="#000000"/>
  <path id="Trazado_24" data-name="Trazado 24" d="M109.264,26.5a1.428,1.428,0,1,0,1.428,1.428A1.43,1.43,0,0,0,109.264,26.5Zm0,2.005a.577.577,0,1,1,.577-.577A.578.578,0,0,1,109.264,28.505Zm0,0" transform="translate(-101.746 -25.004)" fill="#000000"/>
  <path id="Trazado_25" data-name="Trazado 25" d="M44.647,26.5a1.428,1.428,0,1,0,1.428,1.428A1.43,1.43,0,0,0,44.647,26.5Zm0,2.005a.577.577,0,1,1,.577-.577A.578.578,0,0,1,44.647,28.505Zm0,0" transform="translate(-40.778 -25.004)" fill="#000000"/>
  <path id="Trazado_26" data-name="Trazado 26" d="M62.275,167.9a.425.425,0,0,0-.055.6,6.991,6.991,0,1,0-1.3-2.374.426.426,0,0,0,.812-.255,6.176,6.176,0,1,1,1.139,2.086A.426.426,0,0,0,62.275,167.9Zm0,0" transform="translate(-57.179 -148.13)" fill="#000000"/>
  <path id="Trazado_27" data-name="Trazado 27" d="M102.827,204.134a4.913,4.913,0,1,0-4.913-4.913A4.918,4.918,0,0,0,102.827,204.134Zm0-8.974a4.066,4.066,0,0,1,4.051,3.785c-.2.211-.311.305-.551.305s-.352-.1-.568-.324a1.487,1.487,0,0,0-2.363,0c-.216.224-.322.324-.568.324s-.353-.1-.569-.324a1.486,1.486,0,0,0-2.362,0c-.217.224-.323.324-.569.324s-.346-.094-.55-.305A4.066,4.066,0,0,1,102.827,195.16Zm-3.5,4.941a1.536,1.536,0,0,0,1.182-.584c.216-.224.322-.324.568-.324s.352.1.568.324a1.487,1.487,0,0,0,2.363,0c.216-.225.322-.324.569-.324s.353.1.569.324a1.535,1.535,0,0,0,1.181.584,1.418,1.418,0,0,0,.482-.08,4.062,4.062,0,0,1-7.964,0A1.423,1.423,0,0,0,99.326,200.1Zm0,0" transform="translate(-92.385 -183.336)" fill="#000000"/>
</svg>
