<svg id="escalera" xmlns="http://www.w3.org/2000/svg" width="27.005" height="27.005" viewBox="0 0 27.005 27.005">
  <path id="Trazado_280" data-name="Trazado 280" d="M26.555.9a.45.45,0,1,0,0-.9H14.922a1.8,1.8,0,0,0-1.207.464L.742,12.182A2.254,2.254,0,0,0,0,13.852V15.3a.45.45,0,1,0,.9,0v-1.45a1.354,1.354,0,0,1,.445-1L3.151,11.22V21.6H.45a.45.45,0,1,0,0,.9H.9v3.6a.9.9,0,0,0,.9.9h24.3a.9.9,0,0,0,.9-.9V9a.9.9,0,0,0-.9-.9H23.4V.9ZM14.922.9H18V8.1H15.3a.45.45,0,0,0,0,.9h.45v3.15a.451.451,0,0,1-.45.45h-1.35V1.463l.367-.331A.9.9,0,0,1,14.922.9Zm-3.67,11.7h-.9a.45.45,0,0,0,0,.9h.45v3.151a.45.45,0,0,1-.45.45H9V5.935l4.051-3.659V12.6Zm-7.2-2.2L8.1,6.748V17.1H5.4a.45.45,0,0,0,0,.9h.45v3.151a.451.451,0,0,1-.45.45H4.051ZM18,26.105a.9.9,0,0,1-.9-.9V22.5h4.5v2.7a.9.9,0,0,1-.9.9Zm.439-6.458a5.512,5.512,0,0,1-2.473-1.626,5.53,5.53,0,0,1-1.074-2.758,5.507,5.507,0,0,1,2.473,1.626A5.533,5.533,0,0,1,18.442,19.647Zm.183-2.47a4.565,4.565,0,0,1,.007-.752,6.061,6.061,0,0,1,1.31-3.028,6.082,6.082,0,0,1,.714,3.22,3.564,3.564,0,0,1-.078.477,6.454,6.454,0,0,0-.61,1.618c0,.006,0,.012,0,.018a7.534,7.534,0,0,0-.17,1.073h-.43A7.025,7.025,0,0,0,18.625,17.178Zm3.165-.289a5.532,5.532,0,0,1,2.475-1.625,5.512,5.512,0,0,1-1.076,2.757,5.537,5.537,0,0,1-2.475,1.625A5.513,5.513,0,0,1,21.79,16.889ZM22.5,20.7v.9H16.2v-.9Zm3.6,5.4H22.254a1.781,1.781,0,0,0,.251-.9V22.5a.9.9,0,0,0,.9-.9v-.9a.9.9,0,0,0-.9-.9h-.018a5.583,5.583,0,0,0,1.4-1.216A6.716,6.716,0,0,0,25.2,14.649a.45.45,0,0,0-.536-.434,6.977,6.977,0,0,0-3.106,1.6,7.578,7.578,0,0,0-1.176-3.448A.45.45,0,0,0,19.7,12.3,7.362,7.362,0,0,0,17.781,16a6.878,6.878,0,0,0-3.292-1.785.45.45,0,0,0-.536.434,6.713,6.713,0,0,0,1.316,3.939,5.578,5.578,0,0,0,1.4,1.216H16.2a.9.9,0,0,0-.9.9v.9a.9.9,0,0,0,.9.9v2.7a1.782,1.782,0,0,0,.25.9H1.8V22.5H5.4a1.352,1.352,0,0,0,1.35-1.35V18h3.6a1.352,1.352,0,0,0,1.35-1.35V13.5h3.6a1.352,1.352,0,0,0,1.35-1.35V9h9.452Zm-3.6-18H18.9V.9h3.6Zm0,0" transform="translate(0 0)" fill="#fff"/>
  <path id="Trazado_281" data-name="Trazado 281" d="M343.583,469.332h-1.8a.45.45,0,1,0,0,.9h1.8a.45.45,0,1,0,0-.9Zm0,0" transform="translate(-323.329 -444.577)" fill="#fff"/>
</svg>
