<svg id="_14-Toilet" data-name="14-Toilet" xmlns="http://www.w3.org/2000/svg" width="23.987" height="32.71" viewBox="0 0 23.987 32.71">
  <path id="Trazado_252" data-name="Trazado 252" d="M32.352,3.09H25.866a7.421,7.421,0,0,0-7.744,0H11.635A1.637,1.637,0,0,0,10,4.726V6.906a.545.545,0,0,0,.545.545h.545v7.087a1.637,1.637,0,0,0,1.635,1.635h1.159a11.242,11.242,0,0,0,.429,1.09H12.726a1.635,1.635,0,0,0,0,3.271h.024a10.018,10.018,0,0,0,5.415,8.516,10.311,10.311,0,0,1-2.049,4.773.545.545,0,0,0,.426.885h10.9a.545.545,0,0,0,.426-.886,10.265,10.265,0,0,1-2.049-4.773,10.017,10.017,0,0,0,5.415-8.516h.024a1.635,1.635,0,1,0,0-3.271H29.673a11.236,11.236,0,0,0,.429-1.09h1.159A1.637,1.637,0,0,0,32.9,14.539V7.452h.545a.545.545,0,0,0,.545-.545V4.726A1.637,1.637,0,0,0,32.352,3.09ZM11.09,4.726a.546.546,0,0,1,.545-.545H16.66a9.882,9.882,0,0,0-1.765,2.181h-3.8Zm1.635,10.358a.546.546,0,0,1-.545-.545V7.452h2.134a11.852,11.852,0,0,0-1.043,4.906,12.208,12.208,0,0,0,.311,2.726ZM26.4,33.62h-8.81a10.37,10.37,0,0,0,1.646-4.361h5.518A10.37,10.37,0,0,0,26.4,33.62Zm-1.246-5.452H18.835a8.776,8.776,0,0,1-4.991-7.632h16.3A8.775,8.775,0,0,1,25.152,28.168ZM31.807,18.9a.546.546,0,0,1-.545.545H12.726a.545.545,0,0,1,0-1.09H31.261a.546.546,0,0,1,.545.545ZM18.073,17.265a8.22,8.22,0,0,1-1.531-4.906c0-3.908,2.446-7.087,5.452-7.087s5.452,3.179,5.452,7.087a8.22,8.22,0,0,1-1.531,4.906Zm9.152,0a9.516,9.516,0,0,0,1.311-4.906c0-4.509-2.935-8.177-6.542-8.177s-6.542,3.668-6.542,8.177a9.516,9.516,0,0,0,1.311,4.906H15.527a10.682,10.682,0,0,1-1.166-4.906c0-5.11,3.424-9.268,7.632-9.268s7.632,4.157,7.632,9.268a10.683,10.683,0,0,1-1.166,4.906Zm4.582-2.726a.546.546,0,0,1-.545.545h-.856a12.209,12.209,0,0,0,.311-2.726,11.852,11.852,0,0,0-1.043-4.906h2.134ZM32.9,6.361h-3.8a9.882,9.882,0,0,0-1.765-2.181h5.024a.546.546,0,0,1,.545.545Z" transform="translate(-10 -2)" fill="#fff"/>
</svg>
