<svg id="Grupo_259" data-name="Grupo 259" xmlns="http://www.w3.org/2000/svg" xmlns:xlink="http://www.w3.org/1999/xlink" width="383.418" height="111.408" viewBox="0 0 383.418 111.408">
  <defs>
    <clipPath id="clip-path">
      <rect id="Rectángulo_79" data-name="Rectángulo 79" width="383.418" height="111.408" fill="none"/>
    </clipPath>
  </defs>
  <g id="Grupo_50" data-name="Grupo 50" clip-path="url(#clip-path)">
    <path id="Trazado_138" data-name="Trazado 138" d="M92.123,111.408H14.612A14.612,14.612,0,0,1,0,96.8V42.906A14.613,14.613,0,0,1,6.159,30.987L46.985,2.032a11.044,11.044,0,0,1,12.766,0L99.166,29.986a3.579,3.579,0,0,1-4.141,5.839L55.61,7.87a3.882,3.882,0,0,0-4.484,0L8.791,37.9a3.882,3.882,0,0,0-1.633,3.161V96.8a7.454,7.454,0,0,0,7.454,7.454H92.123a3.579,3.579,0,0,1,3.579,3.579h0a3.579,3.579,0,0,1-3.579,3.579" transform="translate(0 0)" fill="#3668ff"/>
    <path id="Trazado_139" data-name="Trazado 139" d="M78.988,135.76a4.7,4.7,0,0,0,.67,1.28,5.969,5.969,0,0,0,1.527,1.443,9.43,9.43,0,0,0,2.6,1.2,13.71,13.71,0,0,0,3.991.49q.964,0,2.3-.082a11.468,11.468,0,0,0,2.545-.435,6.044,6.044,0,0,0,2.116-1.09,2.686,2.686,0,0,0,.964-2.1,2.6,2.6,0,0,0-.964-2.178,7.643,7.643,0,0,0-2.384-1.253,28.574,28.574,0,0,0-5.384-1.2q-.964-.164-2.464-.408a24.267,24.267,0,0,1-3.187-.762,20.373,20.373,0,0,1-3.375-1.389,12.049,12.049,0,0,1-3-2.179,9.4,9.4,0,0,1-2.062-3.132,9.678,9.678,0,0,1-.589-4.33A10.032,10.032,0,0,1,73.6,115.2a10.8,10.8,0,0,1,3.08-3.376,14.268,14.268,0,0,1,4.607-2.124,22.446,22.446,0,0,1,5.946-.735,20.123,20.123,0,0,1,6.054.844,13.645,13.645,0,0,1,4.58,2.4,11.1,11.1,0,0,1,2.973,3.731,12.588,12.588,0,0,1,1.232,4.847H94.309a4.1,4.1,0,0,0-.884-2.26,4.92,4.92,0,0,0-1.768-1.307,9.015,9.015,0,0,0-2.277-.654,15.494,15.494,0,0,0-2.357-.19q-.911,0-2.062.108a9.244,9.244,0,0,0-2.17.463,4.551,4.551,0,0,0-1.714,1.035,2.763,2.763,0,0,0-.8,1.77q0,.382.054.98a2.062,2.062,0,0,0,.75,1.252,7.015,7.015,0,0,0,2.3,1.253,23.658,23.658,0,0,0,4.714,1.035q8.143,1.09,11.839,4a9.572,9.572,0,0,1,3.589,8.2,9.986,9.986,0,0,1-1.018,4.085,10.507,10.507,0,0,1-2.893,3.595,14.8,14.8,0,0,1-4.875,2.532,22.714,22.714,0,0,1-6.964.953,27.183,27.183,0,0,1-5.706-.627,18.132,18.132,0,0,1-5.357-2.042,13.337,13.337,0,0,1-4.1-3.676,10.245,10.245,0,0,1-1.875-5.528Z" transform="translate(-41.284 -63.593)" fill="#fff"/>
    <path id="Trazado_140" data-name="Trazado 140" d="M156.167,130.023h7.875L171.06,148l6.964-17.973H182.9L189.917,148l6.964-17.973h7.875l-12.107,29.628h-5.517l-6.643-17.374-6.643,17.374h-5.571Z" transform="translate(-91.142 -75.884)" fill="#fff"/>
    <path id="Trazado_141" data-name="Trazado 141" d="M294.336,129.631a16.889,16.889,0,0,1,6.322,1.116,11.883,11.883,0,0,1,4.661,3.295,13.588,13.588,0,0,1,2.652,5.365,17.291,17.291,0,0,1,.187,6.89l-.214,1.47H286.675a4.243,4.243,0,0,0,.643,2.287,5.635,5.635,0,0,0,1.714,1.743,8.364,8.364,0,0,0,2.545,1.089,12.239,12.239,0,0,0,3.081.381,9.853,9.853,0,0,0,4.259-.9,9.421,9.421,0,0,0,3.134-2.315l4.393,4.466a12.76,12.76,0,0,1-5.116,3.84,17.669,17.669,0,0,1-6.991,1.335,17.281,17.281,0,0,1-6.161-1.035,12.785,12.785,0,0,1-4.661-3,13.062,13.062,0,0,1-2.946-4.738,19.775,19.775,0,0,1,0-12.526,13.064,13.064,0,0,1,2.946-4.738,12.8,12.8,0,0,1,4.661-3,17.309,17.309,0,0,1,6.161-1.035m7.393,12.363a6.415,6.415,0,0,0-1.393-3.486q-1.982-2.287-6.482-2.179a11.463,11.463,0,0,0-2.277.245,7.833,7.833,0,0,0-2.277.844,5.322,5.322,0,0,0-1.821,1.715,6.051,6.051,0,0,0-.911,2.859Z" transform="translate(-163.151 -75.655)" fill="#fff"/>
    <path id="Trazado_142" data-name="Trazado 142" d="M375.52,129.631a16.889,16.889,0,0,1,6.321,1.116,11.883,11.883,0,0,1,4.661,3.295,13.59,13.59,0,0,1,2.652,5.365,17.291,17.291,0,0,1,.187,6.89l-.214,1.47H367.859a4.242,4.242,0,0,0,.643,2.287,5.635,5.635,0,0,0,1.714,1.743,8.364,8.364,0,0,0,2.544,1.089,12.239,12.239,0,0,0,3.081.381,9.853,9.853,0,0,0,4.259-.9,9.423,9.423,0,0,0,3.134-2.315l4.393,4.466a12.76,12.76,0,0,1-5.116,3.84,17.669,17.669,0,0,1-6.991,1.335,17.281,17.281,0,0,1-6.161-1.035,12.785,12.785,0,0,1-4.661-3,13.062,13.062,0,0,1-2.946-4.738,19.775,19.775,0,0,1,0-12.526,13.064,13.064,0,0,1,2.946-4.738,12.8,12.8,0,0,1,4.661-3,17.309,17.309,0,0,1,6.161-1.035m7.393,12.363a6.415,6.415,0,0,0-1.393-3.486q-1.982-2.287-6.482-2.179a11.463,11.463,0,0,0-2.277.245,7.832,7.832,0,0,0-2.277.844,5.323,5.323,0,0,0-1.821,1.715,6.051,6.051,0,0,0-.911,2.859Z" transform="translate(-210.531 -75.655)" fill="#fff"/>
    <path id="Trazado_143" data-name="Trazado 143" d="M445.906,139.555V115.374h6.8l-.054,5.991h5.893V127.9h-5.893l.054,13.888a4.8,4.8,0,0,0,.107,1.035,3.1,3.1,0,0,0,.348.844,1.89,1.89,0,0,0,.723.681,2.97,2.97,0,0,0,1.447.381,3.185,3.185,0,0,0,1.232-.245,6.711,6.711,0,0,0,1.018-.517,3.7,3.7,0,0,0,.964-.708l3.7,4.466a9.822,9.822,0,0,1-.643.762,7.2,7.2,0,0,1-1.527,1.226,11.471,11.471,0,0,1-2.437,1.116,10.522,10.522,0,0,1-3.375.49,7.468,7.468,0,0,1-5.572-2.179,9.879,9.879,0,0,1-2.624-5.828,4.472,4.472,0,0,1-.107-.926q-.054-.818-.054-2.832" transform="translate(-260.239 -67.334)" fill="#fff"/>
    <path id="Trazado_144" data-name="Trazado 144" d="M543.457,109.619v17.319h24.161V109.619h4.018v38.124h-4.018V130.424H543.457v17.319h-4.018V109.619Z" transform="translate(-314.827 -63.976)" fill="#fff"/>
    <path id="Trazado_145" data-name="Trazado 145" d="M634,144.532q0-7.134,3.884-11.083t10.9-3.949q7.018,0,10.9,3.949t3.884,11.083q0,7.135-3.884,11.083t-10.9,3.949q-7.018,0-10.9-3.949T634,144.532m14.786,11.274q5.3,0,8.036-2.859t2.732-8.414q0-5.556-2.732-8.415t-8.036-2.859q-5.3,0-8.036,2.832t-2.732,8.442q0,5.554,2.732,8.414t8.036,2.859" transform="translate(-370.015 -75.579)" fill="#fff"/>
    <path id="Trazado_146" data-name="Trazado 146" d="M721.1,129.772h3.054l.857,3.812q.428-.435,1.259-1.144a11.447,11.447,0,0,1,2.062-1.361,14.35,14.35,0,0,1,2.92-1.117,14.518,14.518,0,0,1,3.83-.463,13.981,13.981,0,0,1,6.348,1.335,8.95,8.95,0,0,1,4.045,4.112,12.429,12.429,0,0,1,1.179-1.416,11.124,11.124,0,0,1,2.3-1.824,15.8,15.8,0,0,1,3.455-1.552,14.975,14.975,0,0,1,4.634-.654,12.116,12.116,0,0,1,8.6,2.968q3.187,2.969,3.188,9.34V159.4h-3.857V142.952q0-.707-.054-1.661a17.234,17.234,0,0,0-.241-2.015,9.543,9.543,0,0,0-.616-2.069,5.26,5.26,0,0,0-1.232-1.77,7.412,7.412,0,0,0-2.625-1.607,9.7,9.7,0,0,0-3.375-.572,11.679,11.679,0,0,0-3.187.463,11.314,11.314,0,0,0-3.187,1.5,6.682,6.682,0,0,0-1.822,1.8,9.29,9.29,0,0,0-1.071,2.1,10.239,10.239,0,0,0-.509,2.069,13.555,13.555,0,0,0-.134,1.77V159.4h-3.857V142.952q0-.707-.054-1.661a17.3,17.3,0,0,0-.241-2.015,8.735,8.735,0,0,0-.643-2.069,5.6,5.6,0,0,0-1.259-1.77,7.411,7.411,0,0,0-2.625-1.607,9.7,9.7,0,0,0-3.375-.572,11.681,11.681,0,0,0-3.187.463,11.324,11.324,0,0,0-3.187,1.5,6.5,6.5,0,0,0-1.795,1.77,9.127,9.127,0,0,0-1.044,2.1,10.765,10.765,0,0,0-.509,2.1q-.134,1.009-.187,1.77v16.393H721.1Z" transform="translate(-420.85 -75.579)" fill="#fff"/>
    <path id="Trazado_147" data-name="Trazado 147" d="M851.822,144.532q0-7.134,3.884-11.083t10.9-3.949a17.413,17.413,0,0,1,6.375,1.09,11.444,11.444,0,0,1,4.607,3.213q3.8,4.521,2.733,12.309H855.893v.218q0,4.629,2.839,7.08t7.875,2.451a14.321,14.321,0,0,0,5.545-1.035,10.753,10.753,0,0,0,4.152-3l2.518,2.614a12.546,12.546,0,0,1-5.116,3.812,18.29,18.29,0,0,1-7.1,1.307q-7.018,0-10.9-3.949t-3.884-11.083m4.071-1.58h21q.16-4.464-2.143-6.862-2.732-2.887-8.143-2.887a11.622,11.622,0,0,0-7.821,2.478,8.847,8.847,0,0,0-2.893,7.107Z" transform="translate(-497.139 -75.579)" fill="#fff"/>
  </g>
</svg>
