<svg id="Grupo_252" data-name="Grupo 252" xmlns="http://www.w3.org/2000/svg" xmlns:xlink="http://www.w3.org/1999/xlink" width="217.829" height="63.294" viewBox="0 0 217.829 63.294">
  <defs>
    <clipPath id="clip-path">
      <rect id="Rectángulo_67" data-name="Rectángulo 67" width="217.829" height="63.294" fill="#3668fa"/>
    </clipPath>
  </defs>
  <g id="Grupo_46" data-name="Grupo 46" clip-path="url(#clip-path)">
    <path id="Trazado_126" data-name="Trazado 126" d="M52.337,63.294H8.3a8.3,8.3,0,0,1-8.3-8.3V24.376A8.3,8.3,0,0,1,3.5,17.6L26.693,1.154a6.274,6.274,0,0,1,7.253,0L56.339,17.036a2.033,2.033,0,0,1-2.353,3.317L31.593,4.471a2.205,2.205,0,0,0-2.547,0L4.995,21.529a2.206,2.206,0,0,0-.928,1.8V54.992A4.235,4.235,0,0,0,8.3,59.227H52.337a2.033,2.033,0,0,1,2.033,2.033h0a2.033,2.033,0,0,1-2.033,2.033" transform="translate(0 0)" fill="#fff"/>
    <path id="Trazado_127" data-name="Trazado 127" d="M75.425,124.187a2.669,2.669,0,0,0,.38.727,3.391,3.391,0,0,0,.867.82,5.357,5.357,0,0,0,1.476.681,7.789,7.789,0,0,0,2.267.278q.548,0,1.309-.047a6.515,6.515,0,0,0,1.446-.247,3.434,3.434,0,0,0,1.2-.619,1.526,1.526,0,0,0,.548-1.191,1.478,1.478,0,0,0-.548-1.237,4.342,4.342,0,0,0-1.354-.712,16.233,16.233,0,0,0-3.059-.681q-.548-.093-1.4-.232a13.785,13.785,0,0,1-1.811-.433,11.575,11.575,0,0,1-1.918-.789,6.846,6.846,0,0,1-1.7-1.238,5.34,5.34,0,0,1-1.172-1.779,5.5,5.5,0,0,1-.335-2.46,5.7,5.7,0,0,1,.746-2.522,6.133,6.133,0,0,1,1.75-1.918,8.106,8.106,0,0,1,2.617-1.207,12.752,12.752,0,0,1,3.378-.418,11.432,11.432,0,0,1,3.44.48,7.752,7.752,0,0,1,2.6,1.361,6.3,6.3,0,0,1,1.689,2.12,7.152,7.152,0,0,1,.7,2.754H84.129a2.33,2.33,0,0,0-.5-1.284,2.8,2.8,0,0,0-1-.743,5.121,5.121,0,0,0-1.293-.371,8.8,8.8,0,0,0-1.339-.108q-.518,0-1.172.062a5.251,5.251,0,0,0-1.233.263,2.585,2.585,0,0,0-.974.588,1.57,1.57,0,0,0-.457,1.006q0,.217.031.557a1.171,1.171,0,0,0,.426.712,3.986,3.986,0,0,0,1.309.712,13.44,13.44,0,0,0,2.678.588q4.626.619,6.726,2.274a5.438,5.438,0,0,1,2.039,4.657,5.673,5.673,0,0,1-.578,2.321,5.97,5.97,0,0,1-1.643,2.042,8.409,8.409,0,0,1-2.77,1.439,12.9,12.9,0,0,1-3.956.541,15.443,15.443,0,0,1-3.242-.356,10.3,10.3,0,0,1-3.044-1.16,7.577,7.577,0,0,1-2.328-2.089,5.821,5.821,0,0,1-1.065-3.141Z" transform="translate(-54.004 -83.188)" fill="#fff"/>
    <path id="Trazado_128" data-name="Trazado 128" d="M156.167,130.023h4.474l3.987,10.211,3.957-10.211h2.77l3.987,10.211,3.956-10.211h4.474l-6.878,16.832h-3.135l-3.774-9.87-3.774,9.87h-3.165Z" transform="translate(-119.225 -99.266)" fill="#fff"/>
    <path id="Trazado_129" data-name="Trazado 129" d="M287.95,129.631a9.6,9.6,0,0,1,3.591.634,6.751,6.751,0,0,1,2.648,1.872,7.72,7.72,0,0,1,1.507,3.048,9.824,9.824,0,0,1,.106,3.914l-.122.835H283.6a2.41,2.41,0,0,0,.365,1.3,3.2,3.2,0,0,0,.974.99,4.751,4.751,0,0,0,1.446.619,6.953,6.953,0,0,0,1.75.217,5.6,5.6,0,0,0,2.42-.51,5.353,5.353,0,0,0,1.78-1.315l2.5,2.537a7.249,7.249,0,0,1-2.907,2.182,10.038,10.038,0,0,1-3.972.758,9.818,9.818,0,0,1-3.5-.588,7.263,7.263,0,0,1-2.648-1.7,7.421,7.421,0,0,1-1.674-2.692,11.235,11.235,0,0,1,0-7.117,7.422,7.422,0,0,1,1.674-2.692,7.273,7.273,0,0,1,2.648-1.7,9.834,9.834,0,0,1,3.5-.588m4.2,7.024a3.645,3.645,0,0,0-.791-1.98,4.487,4.487,0,0,0-3.682-1.238,6.511,6.511,0,0,0-1.294.139,4.449,4.449,0,0,0-1.293.48,3.024,3.024,0,0,0-1.035.975,3.437,3.437,0,0,0-.517,1.624Z" transform="translate(-213.421 -98.966)" fill="#fff"/>
    <path id="Trazado_130" data-name="Trazado 130" d="M369.134,129.631a9.6,9.6,0,0,1,3.591.634,6.751,6.751,0,0,1,2.648,1.872,7.721,7.721,0,0,1,1.507,3.048,9.823,9.823,0,0,1,.106,3.914l-.122.835H364.782a2.41,2.41,0,0,0,.365,1.3,3.2,3.2,0,0,0,.974.99,4.752,4.752,0,0,0,1.446.619,6.953,6.953,0,0,0,1.75.217,5.6,5.6,0,0,0,2.419-.51,5.353,5.353,0,0,0,1.78-1.315l2.5,2.537a7.25,7.25,0,0,1-2.907,2.182,10.038,10.038,0,0,1-3.972.758,9.818,9.818,0,0,1-3.5-.588,7.263,7.263,0,0,1-2.648-1.7,7.421,7.421,0,0,1-1.674-2.692,11.235,11.235,0,0,1,0-7.117,7.423,7.423,0,0,1,1.674-2.692,7.272,7.272,0,0,1,2.648-1.7,9.833,9.833,0,0,1,3.5-.588m4.2,7.024a3.644,3.644,0,0,0-.791-1.98,4.487,4.487,0,0,0-3.682-1.238,6.511,6.511,0,0,0-1.294.139,4.45,4.45,0,0,0-1.294.48,3.024,3.024,0,0,0-1.035.975,3.437,3.437,0,0,0-.517,1.624Z" transform="translate(-275.4 -98.966)" fill="#fff"/>
    <path id="Trazado_131" data-name="Trazado 131" d="M445.906,129.112V115.374h3.865l-.03,3.4h3.348v3.713h-3.348l.03,7.89a2.728,2.728,0,0,0,.061.588,1.763,1.763,0,0,0,.2.479,1.074,1.074,0,0,0,.411.387,1.688,1.688,0,0,0,.822.216,1.809,1.809,0,0,0,.7-.139,3.816,3.816,0,0,0,.578-.294,2.106,2.106,0,0,0,.548-.4l2.1,2.537a5.592,5.592,0,0,1-.365.433,4.093,4.093,0,0,1-.867.7,6.518,6.518,0,0,1-1.385.634,5.978,5.978,0,0,1-1.918.279,4.243,4.243,0,0,1-3.165-1.238A5.612,5.612,0,0,1,446,131.247a2.544,2.544,0,0,1-.061-.526q-.031-.464-.031-1.609" transform="translate(-340.424 -88.082)" fill="#fff"/>
    <path id="Trazado_132" data-name="Trazado 132" d="M541.722,109.619v9.839h13.726v-9.839h2.283v21.659h-2.283v-9.84H541.722v9.84h-2.283V109.619Z" transform="translate(-411.831 -83.688)" fill="#fff"/>
    <path id="Trazado_133" data-name="Trazado 133" d="M634,138.04a8.6,8.6,0,0,1,2.207-6.3,9.671,9.671,0,0,1,12.387,0,10.088,10.088,0,0,1,0,12.593,9.672,9.672,0,0,1-12.387,0,8.594,8.594,0,0,1-2.207-6.3m8.4,6.4a6.024,6.024,0,0,0,4.565-1.624,8.138,8.138,0,0,0,0-9.561,7.254,7.254,0,0,0-9.131-.016,8.162,8.162,0,0,0,0,9.577,6.025,6.025,0,0,0,4.565,1.624" transform="translate(-484.025 -98.866)" fill="#fff"/>
    <path id="Trazado_134" data-name="Trazado 134" d="M721.1,129.655h1.735l.487,2.166q.243-.247.715-.65a6.5,6.5,0,0,1,1.172-.773,8.151,8.151,0,0,1,1.659-.634,8.249,8.249,0,0,1,2.176-.263,7.944,7.944,0,0,1,3.607.758,5.086,5.086,0,0,1,2.3,2.336,7.054,7.054,0,0,1,.67-.8,6.32,6.32,0,0,1,1.309-1.036,8.978,8.978,0,0,1,1.963-.882,8.507,8.507,0,0,1,2.633-.371,6.883,6.883,0,0,1,4.885,1.686q1.811,1.687,1.811,5.306v9.994H746.03v-9.344q0-.4-.031-.944a9.751,9.751,0,0,0-.137-1.145,5.416,5.416,0,0,0-.35-1.176,2.989,2.989,0,0,0-.7-1.005,4.212,4.212,0,0,0-1.491-.913,5.512,5.512,0,0,0-1.918-.325,6.636,6.636,0,0,0-1.811.263,6.425,6.425,0,0,0-1.811.851,3.8,3.8,0,0,0-1.035,1.021,5.283,5.283,0,0,0-.609,1.192,5.815,5.815,0,0,0-.289,1.175,7.689,7.689,0,0,0-.076,1.006v9.344h-2.191v-9.344q0-.4-.03-.944a9.856,9.856,0,0,0-.137-1.145,4.966,4.966,0,0,0-.365-1.176,3.181,3.181,0,0,0-.715-1.005,4.209,4.209,0,0,0-1.491-.913,5.509,5.509,0,0,0-1.917-.325,6.637,6.637,0,0,0-1.811.263,6.433,6.433,0,0,0-1.811.851,3.691,3.691,0,0,0-1.02,1.006,5.185,5.185,0,0,0-.593,1.191,6.115,6.115,0,0,0-.289,1.191q-.076.573-.107,1.006v9.313H721.1Z" transform="translate(-550.522 -98.866)" fill="#fff"/>
    <path id="Trazado_135" data-name="Trazado 135" d="M851.822,138.04a8.6,8.6,0,0,1,2.207-6.3,8.294,8.294,0,0,1,6.193-2.243,9.893,9.893,0,0,1,3.622.619,6.5,6.5,0,0,1,2.617,1.826q2.161,2.569,1.552,6.993H854.135v.124a5.023,5.023,0,0,0,1.613,4.022,6.627,6.627,0,0,0,4.474,1.392,8.136,8.136,0,0,0,3.15-.588,6.109,6.109,0,0,0,2.359-1.7l1.43,1.485a7.127,7.127,0,0,1-2.907,2.166,10.391,10.391,0,0,1-4.033.743,8.292,8.292,0,0,1-6.193-2.243,8.594,8.594,0,0,1-2.207-6.3m2.313-.9h11.931a5.124,5.124,0,0,0-1.218-3.9,6.077,6.077,0,0,0-4.626-1.64,6.6,6.6,0,0,0-4.443,1.408,5.026,5.026,0,0,0-1.643,4.038Z" transform="translate(-650.318 -98.866)" fill="#fff"/>
  </g>
</svg>
