<svg xmlns="http://www.w3.org/2000/svg" width="24.5" height="35" viewBox="0 0 24.5 35">
  <g id="lavabo" transform="translate(-110 -163)">
    <g id="Grupo_236" data-name="Grupo 236" transform="translate(110 163)">
      <g id="Grupo_235" data-name="Grupo 235">
        <path id="Trazado_263" data-name="Trazado 263" d="M95.917,12.833H91.469a7.529,7.529,0,0,0,2.114-5.25A.583.583,0,0,0,93,7H88.917V5.833a.583.583,0,0,0-.583-.583H86a.583.583,0,0,0-.583.583V7h-.583V2.917a1.75,1.75,0,0,1,3.5,0,.583.583,0,1,0,1.167,0,2.917,2.917,0,1,0-5.833,0V7h-.583V5.833A.583.583,0,0,0,82.5,5.25H80.167a.583.583,0,0,0-.583.583V7H75.5a.583.583,0,0,0-.583.583,7.548,7.548,0,0,0,2.122,5.25H72.583a.583.583,0,0,0-.583.583V28.583a.583.583,0,0,0,.583.583h.583v5.25A.583.583,0,0,0,73.75,35H75.5a.583.583,0,0,0,.575-.488l.421-2.525a.583.583,0,0,1,.575-.487H91.428a.583.583,0,0,1,.575.487l.421,2.525A.583.583,0,0,0,93,35h1.75a.583.583,0,0,0,.583-.583v-5.25h.583a.583.583,0,0,0,.583-.583V13.417A.583.583,0,0,0,95.917,12.833ZM86.583,6.417H87.75V7H86.583Zm-5.833,0h1.167V7H80.75Zm-4.64,1.75H92.391a6.4,6.4,0,0,1-2.7,4.667H78.812A6.38,6.38,0,0,1,76.11,8.167ZM73.167,28V14h10.5V28Zm21,5.833h-.673l-.34-2.038a1.745,1.745,0,0,0-1.726-1.462H77.072A1.745,1.745,0,0,0,75.345,31.8l-.339,2.038h-.673V29.167H94.167ZM95.333,28h-10.5V14h10.5Z" transform="translate(-72)" fill="#fff"/>
        <path id="Trazado_264" data-name="Trazado 264" d="M256.583,267.5a.583.583,0,0,0,.583-.583v-2.333a.583.583,0,1,0-1.167,0v2.333A.583.583,0,0,0,256.583,267.5Z" transform="translate(-242.583 -244.75)" fill="#fff"/>
        <path id="Trazado_265" data-name="Trazado 265" d="M208.583,264a.583.583,0,0,0-.583.583v2.333a.583.583,0,1,0,1.167,0v-2.333A.583.583,0,0,0,208.583,264Z" transform="translate(-198.083 -244.75)" fill="#fff"/>
      </g>
    </g>
  </g>
</svg>
