<svg xmlns="http://www.w3.org/2000/svg" xmlns:xlink="http://www.w3.org/1999/xlink" width="61" height="61" viewBox="0 0 61 61">
  <defs>
    <filter id="Elipse_56" x="0" y="0" width="61" height="61" filterUnits="userSpaceOnUse">
      <feOffset dy="3" input="SourceAlpha"/>
      <feGaussianBlur stdDeviation="3" result="blur"/>
      <feFlood flood-opacity="0.161"/>
      <feComposite operator="in" in2="blur"/>
      <feComposite in="SourceGraphic"/>
    </filter>
    <clipPath id="clip-path">
      <rect id="Rectángulo_55" data-name="Rectángulo 55" width="25.677" height="31.683" fill="#fff"/>
    </clipPath>
  </defs>
  <g id="Grupo_257" data-name="Grupo 257" transform="translate(1724 -1900)">
    <g transform="matrix(1, 0, 0, 1, -1724, 1900)" filter="url(#Elipse_56)">
      <g id="Elipse_56-2" data-name="Elipse 56" transform="translate(9 6)" fill="none" stroke="#fff" stroke-width="2">
        <circle cx="21.5" cy="21.5" r="21.5" stroke="none"/>
        <circle cx="21.5" cy="21.5" r="20.5" fill="none"/>
      </g>
    </g>
    <g id="Grupo_253" data-name="Grupo 253" transform="translate(-1706 1917.317)">
      <g id="Grupo_22" data-name="Grupo 22" transform="translate(0 0)" clip-path="url(#clip-path)">
        <path id="Trazado_104" data-name="Trazado 104" d="M16.856,0a6.777,6.777,0,1,1-6.777,6.776A6.777,6.777,0,0,1,16.856,0" transform="translate(-4.018 0)" fill="#fff"/>
        <path id="Trazado_105" data-name="Trazado 105" d="M25.677,35.351A20.715,20.715,0,0,1,0,35.351C1.324,29.525,2.543,24.5,3.811,23.222c1.79-1.791,6.547-2.836,9.021-2.836s7.455,1.268,8.375,2.188c1.878,1.872,3.494,7.038,4.47,12.777" transform="translate(0 -8.126)" fill="#fff"/>
      </g>
    </g>
  </g>
</svg>
