<svg xmlns="http://www.w3.org/2000/svg" width="30" height="30" viewBox="0 0 30 30">
  <path id="Trazado_303" data-name="Trazado 303" d="M29.5,14H20.281l2.539-2.116A.5.5,0,0,0,23,11.5V8.234l2.82-2.35a.5.5,0,1,0-.641-.768l-3,2.5A.5.5,0,0,0,22,8v3.266l-2.358,1.965a2.5,2.5,0,0,0-.937-.907A2.5,2.5,0,0,0,17.5,8.051V2.5a.5.5,0,1,0-1,0V8.051a2.5,2.5,0,0,0-1.205,4.273,2.5,2.5,0,0,0-.937.907L12,11.266V8a.5.5,0,0,0-.18-.384l-3-2.5a.5.5,0,1,0-.641.768L11,8.234V11.5a.5.5,0,0,0,.18.384L13.719,14H4.5A2.5,2.5,0,0,0,2,16.5v1.333a2.495,2.495,0,0,0,3.2,2.4l8.816-2.571a2.474,2.474,0,0,0,.136.668L10.3,20.043a.5.5,0,0,0-.231.209L8.133,23.634,4.752,25.566a.5.5,0,0,0,.5.868l3.5-2a.5.5,0,0,0,.186-.186l1.919-3.358,3.012-1.339a7.851,7.851,0,0,0-.261,1.138l-1.957,1.957A.5.5,0,0,0,11.5,23v4.333L8.6,31.2a.5.5,0,0,0,.8.6l3-4a.5.5,0,0,0,.1-.3V23.207L13.506,22.2c.066,2.987,1.575,5.3,3.494,5.3s3.428-2.312,3.494-5.3L21.5,23.207V27.5a.5.5,0,0,0,.1.3l3,4a.5.5,0,1,0,.8-.6l-2.9-3.867V23a.5.5,0,0,0-.146-.354L20.4,20.689a7.85,7.85,0,0,0-.261-1.138l3.012,1.339,1.919,3.358a.5.5,0,0,0,.186.186l3.5,2a.5.5,0,0,0,.5-.868l-3.381-1.932-1.933-3.382a.5.5,0,0,0-.231-.209L19.848,18.33a2.474,2.474,0,0,0,.136-.668L28.8,20.233a2.495,2.495,0,0,0,3.2-2.4V16.5A2.5,2.5,0,0,0,29.5,14ZM17,9a1.5,1.5,0,1,1-1.5,1.5A1.5,1.5,0,0,1,17,9Zm-2,5.5A1.5,1.5,0,0,1,16.5,13h1A1.5,1.5,0,0,1,19,14.5v3A1.5,1.5,0,0,1,17.5,19h-1A1.5,1.5,0,0,1,15,17.5ZM4.92,19.273A1.5,1.5,0,0,1,3,17.833V16.5A1.5,1.5,0,0,1,4.5,15H14v1.625ZM17,26.5c-1.355,0-2.5-2.061-2.5-4.5a7.035,7.035,0,0,1,.462-2.544A2.475,2.475,0,0,0,16.5,20h1a2.475,2.475,0,0,0,1.538-.544A7.035,7.035,0,0,1,19.5,22C19.5,24.439,18.355,26.5,17,26.5Zm14-8.667a1.5,1.5,0,0,1-1.92,1.44L20,16.625V15h9.5A1.5,1.5,0,0,1,31,16.5Z" transform="translate(-2 -2)" fill="#fff"/>
</svg>
