<svg id="reloj-de-pared" xmlns="http://www.w3.org/2000/svg" width="20.922" height="20.922" viewBox="0 0 20.922 20.922">
  <g id="Grupo_43" data-name="Grupo 43" transform="translate(0 0)">
    <g id="Grupo_42" data-name="Grupo 42">
      <path id="Trazado_122" data-name="Trazado 122" d="M10.461,0A10.461,10.461,0,1,0,20.922,10.461,10.473,10.473,0,0,0,10.461,0Zm0,19.4A8.934,8.934,0,1,1,19.4,10.461,8.944,8.944,0,0,1,10.461,19.4Z" transform="translate(0 0)" fill="#fff"/>
    </g>
  </g>
  <g id="Grupo_45" data-name="Grupo 45" transform="translate(9.189 5.116)">
    <g id="Grupo_44" data-name="Grupo 44">
      <path id="Trazado_123" data-name="Trazado 123" d="M229.693,130.542h-3.309v-4.582a.764.764,0,1,0-1.527,0v5.345a.764.764,0,0,0,.764.764h4.072a.764.764,0,1,0,0-1.527Z" transform="translate(-224.857 -125.197)" fill="#fff"/>
    </g>
  </g>
</svg>
