<svg xmlns="http://www.w3.org/2000/svg" width="27.367" height="14.294" viewBox="0 0 27.367 14.294">
  <path id="techo" d="M27.335,12.306v0h0L22.947,2.132a2.417,2.417,0,0,0-.7-.93A3.217,3.217,0,0,0,20.243.5H7.607a.4.4,0,1,0,0,.8H9.039L8.316,4.651a3.763,3.763,0,0,0-3.905-.475L5.156,2.45a1.621,1.621,0,0,1,.467-.625,4.521,4.521,0,0,1,.53-.321A.4.4,0,0,0,5.83.77a3.2,3.2,0,0,0-.7.424l-.006,0a2.421,2.421,0,0,0-.7.934L1.595,8.68l-.01.025L.032,12.3h0v0a.4.4,0,0,0-.032.16v1.452a.636.636,0,0,0,1.072.463,3.863,3.863,0,0,1,5.5.2.637.637,0,0,0,.939,0,3.863,3.863,0,0,1,5.7,0,.637.637,0,0,0,.939,0,3.863,3.863,0,0,1,5.7,0,.637.637,0,0,0,.939,0,3.842,3.842,0,0,1,1.965-1.155.4.4,0,0,0-.183-.78,4.636,4.636,0,0,0-2.251,1.266,4.664,4.664,0,0,0-6.641,0,4.664,4.664,0,0,0-6.641,0A4.665,4.665,0,0,0,.8,13.553v-.947a3.866,3.866,0,0,1,5.928.106.4.4,0,0,0,.628,0,3.846,3.846,0,0,1,3-1.435,3.806,3.806,0,0,1,3.016,1.449l.016.017a.357.357,0,0,0,.032.03.4.4,0,0,0,.521-.007l.016-.014.017-.018.014-.017h0A3.846,3.846,0,0,1,17,11.273a3.9,3.9,0,0,1,3.056,1.489.4.4,0,0,0,.571-.041,3.859,3.859,0,0,1,5.935-.114v.947a4.628,4.628,0,0,0-2.229-.975.4.4,0,0,0-.118.793,3.834,3.834,0,0,1,2.076,1.01.636.636,0,0,0,1.072-.463V12.465A.4.4,0,0,0,27.335,12.306ZM6.809,11.638a4.673,4.673,0,0,0-5.37-.574l.861-2a3.442,3.442,0,0,1,5.062,0Zm.752-3.487a4.258,4.258,0,0,0-4.63-.546l.862-2A2.944,2.944,0,0,1,8.12,5.56ZM13.282,11.5A4.671,4.671,0,0,0,7.7,11.3L8.178,9.1a3.442,3.442,0,0,1,5.1-.005Zm0-3.489a4.263,4.263,0,0,0-4.829-.188L8.93,5.607a2.944,2.944,0,0,1,4.352-.019Zm0-3.486A3.766,3.766,0,0,0,9.2,4.357L9.859,1.3h3.423ZM20.243,1.3a2.38,2.38,0,0,1,1.5.528,1.615,1.615,0,0,1,.464.622l.744,1.726a3.763,3.763,0,0,0-3.905.475L18.327,1.3Zm-6.159,0h3.423l.659,3.057a3.766,3.766,0,0,0-4.082.165Zm0,4.288a2.944,2.944,0,0,1,4.352.019l.477,2.212a4.263,4.263,0,0,0-4.829.188ZM17,10.471A4.641,4.641,0,0,0,14.084,11.5v-2.4a3.441,3.441,0,0,1,5.1.005l.476,2.205A4.645,4.645,0,0,0,17,10.471Zm2.242-4.91a2.944,2.944,0,0,1,4.327.048l.862,2a4.258,4.258,0,0,0-4.63.546Zm1.311,6.078L20,9.072a3.442,3.442,0,0,1,5.062,0l.861,2A4.67,4.67,0,0,0,20.557,11.638Zm0,0" transform="translate(0 -0.498)" fill="#fff"/>
</svg>
