<svg xmlns="http://www.w3.org/2000/svg" xmlns:xlink="http://www.w3.org/1999/xlink" width="35" height="35" viewBox="0 0 35 35">
  <defs>
    <clipPath id="clip-path">
      <rect id="Rectángulo_55" data-name="Rectángulo 55" width="20.641" height="25.469" fill="#fff"/>
    </clipPath>
  </defs>
  <g id="Grupo_254" data-name="Grupo 254" transform="translate(-490 -715)">
    <circle id="Elipse_21" data-name="Elipse 21" cx="17.5" cy="17.5" r="17.5" transform="translate(490 715)" fill="#a8c3ef"/>
    <g id="Grupo_23" data-name="Grupo 23" transform="translate(497.235 724.097)">
      <g id="Grupo_22" data-name="Grupo 22" transform="translate(0 0)" clip-path="url(#clip-path)">
        <path id="Trazado_104" data-name="Trazado 104" d="M15.527,0a5.448,5.448,0,1,1-5.448,5.447A5.447,5.447,0,0,1,15.527,0" transform="translate(-5.206 0)" fill="#fff"/>
        <path id="Trazado_105" data-name="Trazado 105" d="M20.641,32.416A16.652,16.652,0,0,1,0,32.416c1.065-4.683,2.044-8.726,3.064-9.75,1.439-1.44,5.263-2.279,7.252-2.279s5.993,1.02,6.732,1.759c1.509,1.5,2.809,5.658,3.593,10.271" transform="translate(0 -10.531)" fill="#fff"/>
      </g>
    </g>
  </g>
</svg>
